<svg width="180" height="81" viewBox="0 0 180 81" fill="none" xmlns="http://www.w3.org/2000/svg">
<path d="M22.124 15.2315H6.21418V5.6702H24.0503V0.0512009H0V34.9428H6.21418V20.8569H22.124V15.2315Z" fill="#111111"/>
<path d="M35.0196 9.39486H28.9014V34.9427H35.0196V9.39486Z" fill="#111111"/>
<path d="M61.3482 32.306C60.7594 31.8837 60.1067 31.5573 59.4155 31.3269C58.6987 31.0965 57.9755 30.9237 57.2524 30.8149C56.542 30.7061 55.806 30.6357 55.0636 30.6165C54.2125 30.5973 53.5917 30.5909 53.0413 30.5909H48.7919C48.1263 30.5909 47.4799 30.4629 46.8591 30.2133C46.2192 29.9509 45.8992 29.4198 45.8992 28.6326C45.8992 28.1846 46.0464 27.7942 46.3408 27.4678C46.6287 27.1478 46.9295 26.9046 47.2239 26.7382L47.2559 26.719L47.2879 26.7318C48.5935 27.1862 49.9822 27.4166 51.4094 27.4166C52.7789 27.4166 54.1101 27.199 55.358 26.7766C56.6124 26.3543 57.7195 25.7463 58.6667 24.9655C59.6075 24.1847 60.3755 23.212 60.9386 22.0792C61.5082 20.9401 61.7962 19.6217 61.7962 18.1626C61.7962 16.537 61.3546 14.9883 60.4778 13.5611L60.4586 13.5291L60.4714 13.4971C60.6698 12.8507 61.0794 12.4028 61.6746 12.1596C62.257 11.9228 62.9226 11.8076 63.6585 11.8076L64.0745 11.846V7.19974C63.8825 7.14855 63.6265 7.12295 63.3129 7.12295H62.4746C61.3994 7.12295 60.4011 7.37894 59.4987 7.87812C58.5963 8.3773 57.8603 9.19007 57.31 10.2908L57.2716 10.3676L57.2012 10.3228C56.35 9.83645 55.4284 9.44606 54.4493 9.17087C53.4765 8.89568 52.4525 8.75489 51.4094 8.75489C49.9822 8.75489 48.6191 8.95968 47.3583 9.36927C46.104 9.77885 44.9904 10.3804 44.0496 11.1612C43.1025 11.942 42.3473 12.9339 41.7969 14.1051C41.2465 15.2763 40.9649 16.633 40.9649 18.1306C40.9649 19.4361 41.1953 20.6265 41.6497 21.6568C42.0977 22.6936 42.7249 23.6216 43.5057 24.4023L43.576 24.4727L43.4929 24.5239C41.4833 25.7591 40.4658 27.4806 40.4658 29.6501C40.4658 30.4885 40.6898 31.3205 41.1249 32.1077C41.5601 32.9012 42.1937 33.5284 43.0001 33.9828L43.1345 34.0596L43.0001 34.13C42.0273 34.6228 41.2785 35.3331 40.7601 36.2483C40.2418 37.1699 39.9794 38.2002 39.9794 39.301C39.9794 40.4978 40.2482 41.5665 40.7857 42.4753C41.3169 43.3777 42.0785 44.184 43.0577 44.8752C44.3888 45.816 45.848 46.4111 47.3967 46.6415C48.9455 46.8719 50.5262 46.9871 52.1005 46.9871C53.5149 46.9871 54.9676 46.8527 56.4332 46.5903C57.8987 46.328 59.2363 45.8736 60.4074 45.24C61.5786 44.6064 62.545 43.7232 63.2937 42.6225C64.0361 41.5217 64.4137 40.1266 64.4137 38.469C64.4137 37.2467 64.1833 36.0883 63.7225 35.0196C63.2425 33.9508 62.4426 33.0484 61.3482 32.306ZM48.0047 14.6235C48.8239 13.7019 49.9694 13.2347 51.3966 13.2347C52.8301 13.2347 53.9757 13.7019 54.7885 14.6235C55.6076 15.545 56.0236 16.7162 56.0236 18.1114C56.0236 19.5129 55.6076 20.6841 54.7885 21.58C53.9693 22.4824 52.8301 22.9432 51.3966 22.9432C49.963 22.9432 48.8239 22.4824 48.0047 21.58C47.1855 20.6841 46.7695 19.5129 46.7695 18.1114C46.7695 16.7162 47.1855 15.545 48.0047 14.6235ZM58.0011 40.6514C57.5148 41.1377 56.9196 41.5025 56.2156 41.7329C55.518 41.9697 54.7628 42.1105 53.9757 42.1553C53.1821 42.2065 52.4653 42.2257 51.8446 42.2257C51.2174 42.2257 50.5326 42.1937 49.8158 42.1297C49.0415 42.0593 48.3247 41.8993 47.6719 41.6561C47.0127 41.4129 46.4431 41.0481 45.9824 40.5746C45.528 40.0946 45.2912 39.429 45.2912 38.5906C45.2912 37.7587 45.5216 37.0483 45.976 36.4915C46.4303 35.9347 46.9999 35.5571 47.6719 35.3523H47.6975H52.5357C53.1629 35.3523 53.8157 35.3715 54.4941 35.4035C55.198 35.4355 55.87 35.5507 56.4908 35.7491C57.118 35.9539 57.6363 36.2675 58.0779 36.7091C58.5195 37.1443 58.7435 37.7779 58.7435 38.597C58.7435 39.4546 58.4939 40.1522 58.0011 40.6514Z" fill="#111111"/>
<path d="M96.163 8.76129C94.4414 8.76129 92.8991 9.12608 91.5807 9.83645C90.2688 10.5468 89.2256 11.5836 88.4769 12.9211L88.4001 13.0555L88.3297 12.9211C87.6833 11.622 86.7425 10.5916 85.5458 9.86205C84.3426 9.13248 82.8259 8.76129 81.0403 8.76129C79.3508 8.76129 77.8852 9.13888 76.6885 9.88765C75.4853 10.6364 74.5189 11.6092 73.8022 12.7739L73.687 12.9659L73.175 9.40127H68.1896V34.9428H74.1542V20.9785C74.1542 20.1721 74.2502 19.3721 74.4486 18.5401C74.6469 17.7082 74.9669 16.9402 75.3957 16.2682C75.8245 15.5898 76.3621 15.0331 76.9957 14.6171C77.6292 14.1947 78.41 13.9835 79.3124 13.9835C80.8803 13.9835 81.9619 14.4379 82.5123 15.3339C83.0626 16.217 83.3378 17.4714 83.3378 19.0585V34.9428H89.3024V20.9785C89.3024 20.1721 89.3984 19.3721 89.5968 18.5401C89.7952 17.7146 90.1088 16.953 90.5184 16.2682C90.9344 15.5898 91.4655 15.0331 92.0991 14.6107C92.7327 14.1883 93.5135 13.9771 94.4158 13.9771C95.9838 13.9771 97.0653 14.4315 97.6157 15.3275C98.1661 16.2106 98.4413 17.465 98.4413 19.0521V34.9492H104.419V17.6826C104.419 15.0459 103.721 12.8763 102.339 11.2316C100.976 9.58686 98.8893 8.76129 96.163 8.76129Z" fill="#111111"/>
<path d="M130.28 13.4779C129.237 11.8844 127.88 10.6876 126.261 9.92605C124.629 9.15808 122.844 8.77409 120.956 8.77409C119.189 8.77409 117.615 9.06848 116.265 9.65726C114.921 10.2396 113.756 11.0332 112.809 12.0124C111.567 13.2603 110.639 14.7771 110.038 16.505C109.436 18.2458 109.129 20.1785 109.129 22.2392C109.129 24.3319 109.468 26.2647 110.14 27.9926C110.806 29.7206 111.791 31.2181 113.065 32.4597C114.082 33.4068 115.247 34.1748 116.527 34.738C117.813 35.3075 119.356 35.5955 121.116 35.5955C122.741 35.5955 124.328 35.3139 125.826 34.7572C127.317 34.2068 128.623 33.2788 129.698 32.0117C130.191 31.4165 130.658 30.6677 131.093 29.7781C131.515 28.9142 131.765 28.1142 131.842 27.391H126.063C125.826 28.2294 125.41 28.9526 124.821 29.5414C124.354 30.0085 123.816 30.3413 123.234 30.5269C122.652 30.7061 121.903 30.8021 121.013 30.8021C120.143 30.8021 119.394 30.6421 118.78 30.3221C118.153 29.9957 117.621 29.631 117.154 29.1958C116.521 28.5878 116.041 27.8262 115.727 26.9366C115.413 26.0471 115.253 25.0871 115.253 24.0887V24.012H132.443V23.0008C132.443 22.7896 132.456 22.5784 132.494 22.3544C132.494 20.7737 132.36 19.2313 132.104 17.7594C131.829 16.3194 131.221 14.8731 130.28 13.4779ZM126.466 19.6857H115.183V19.6025C115.209 18.7641 115.33 18.009 115.529 17.3562C115.733 16.7226 116.066 16.1146 116.533 15.5515C116.994 14.9563 117.602 14.4635 118.338 14.0923C119.081 13.7211 119.938 13.5355 120.898 13.5355C121.788 13.5355 122.568 13.6699 123.228 13.9387C123.88 14.2075 124.431 14.5787 124.86 15.0459C125.884 16.1722 126.428 17.7018 126.466 19.5961V19.6857Z" fill="#111111"/>
<path d="M156.884 11.3212C156.154 10.5276 155.246 9.89405 154.19 9.43326C153.134 8.97888 151.905 8.74849 150.542 8.74849C149.083 8.74849 147.643 9.06848 146.254 9.70846C144.878 10.3356 143.803 11.334 143.054 12.6652L142.939 12.8763L142.472 9.39487H137.435V34.9428H143.451V24.5431C143.451 23.4616 143.483 22.3032 143.553 21.0041C143.617 19.7369 143.867 18.6041 144.302 17.6378C144.737 16.6714 145.326 15.8714 146.056 15.2571C146.792 14.6363 147.726 14.3227 148.827 14.3227C150.491 14.3227 151.643 14.7643 152.251 15.641C152.852 16.5114 153.153 17.721 153.153 19.2441V34.93H159.169V17.8618C159.169 16.5562 158.97 15.3275 158.58 14.2011C158.183 13.0875 157.62 12.1212 156.884 11.3212Z" fill="#111111"/>
<path d="M176.077 29.8165C175.079 29.8165 174.323 29.5861 173.85 29.1254C173.37 28.6646 173.133 27.9414 173.133 26.9174V14.3291H179.61V9.39487H173.133V1.35675L167.117 2.8479V9.39487H162.42V14.3291H167.117V27.4614C167.117 29.8997 167.757 31.8325 169.024 33.2148C170.292 34.5908 172.231 35.2947 174.797 35.2947C176.499 35.2947 178.253 35.0708 180 34.6228V29.5797C179.238 29.6693 178.541 29.7333 177.933 29.7653C177.382 29.7973 176.774 29.8165 176.077 29.8165Z" fill="#111111"/>
<path d="M31.9477 0C29.7973 0 28.287 1.68954 28.287 3.61587C28.287 5.6318 29.7973 7.14215 31.9477 7.14215C34.0532 7.14215 35.6083 5.6318 35.6083 3.61587C35.6147 1.68954 34.0596 0 31.9477 0Z" fill="#111111"/>
<path d="M180 47.7039H98.6397V80.1763H180V47.7039Z" fill="#111111"/>
<path d="M111.753 71.6262V55.4092H114.703V68.8359H122.229V71.6262H111.753Z" fill="#FFF29B"/>
<path d="M133.941 65.7704C133.928 65.8792 133.915 65.9752 133.915 66.0648V66.5704H125.954C125.954 67.0248 126.024 67.46 126.172 67.876C126.319 68.2856 126.536 68.6311 126.824 68.9063C127.035 69.1047 127.285 69.2775 127.567 69.4183C127.848 69.5655 128.187 69.6359 128.584 69.6359C128.994 69.6359 129.333 69.5911 129.602 69.5079C129.871 69.4247 130.107 69.2775 130.325 69.0599C130.6 68.7847 130.792 68.452 130.895 68.0552H133.64C133.608 68.4072 133.493 68.7911 133.288 69.2071C133.083 69.6295 132.866 69.9751 132.635 70.2503C132.13 70.8455 131.528 71.2743 130.831 71.5302C130.127 71.7926 129.397 71.9206 128.635 71.9206C127.81 71.9206 127.099 71.7862 126.498 71.5174C125.896 71.2487 125.359 70.8967 124.885 70.4551C124.29 69.8727 123.836 69.1815 123.522 68.3752C123.208 67.5688 123.055 66.6728 123.055 65.7001C123.055 64.7401 123.196 63.8505 123.477 63.0377C123.759 62.225 124.188 61.5274 124.77 60.945C125.212 60.4906 125.749 60.1195 126.383 59.8443C127.016 59.5691 127.746 59.4347 128.565 59.4347C129.448 59.4347 130.274 59.6139 131.035 59.9723C131.797 60.3306 132.424 60.881 132.91 61.6298C133.352 62.2826 133.634 62.9546 133.755 63.6329C133.877 64.3049 133.941 65.0217 133.941 65.7704ZM131.08 64.4841C131.067 63.6137 130.818 62.9226 130.351 62.4042C130.152 62.193 129.903 62.0202 129.608 61.8986C129.314 61.777 128.955 61.713 128.546 61.713C128.104 61.713 127.714 61.7962 127.381 61.9626C127.048 62.129 126.773 62.353 126.556 62.6282C126.344 62.8906 126.191 63.1593 126.101 63.4537C126.012 63.7417 125.954 64.0873 125.941 64.4841H131.08Z" fill="#FFF29B"/>
<path d="M146.977 71.4854C146.734 71.5942 146.523 71.671 146.35 71.7286C146.177 71.7798 145.908 71.8118 145.563 71.8118C144.936 71.8118 144.456 71.6454 144.123 71.3063C143.79 70.9735 143.598 70.5831 143.553 70.1415C143.278 70.6279 142.824 71.0503 142.184 71.4022C141.544 71.7542 140.795 71.927 139.944 71.927C139.227 71.927 138.6 71.8246 138.069 71.6198C137.538 71.4151 137.09 71.1399 136.731 70.7943C136.373 70.4487 136.104 70.0519 135.918 69.6039C135.733 69.1559 135.643 68.6823 135.643 68.196C135.643 67.6328 135.746 67.1272 135.95 66.6856C136.155 66.244 136.443 65.86 136.808 65.5401C137.173 65.2201 137.602 64.9705 138.088 64.7977C138.574 64.6249 139.099 64.5097 139.669 64.4649L143.169 64.2153V63.4857C143.169 62.9225 143.035 62.4682 142.766 62.1226C142.497 61.777 141.96 61.6106 141.153 61.6106C140.481 61.6106 139.963 61.7578 139.585 62.0458C139.214 62.3338 139.009 62.7562 138.977 63.3065H136.213C136.258 62.6346 136.418 62.0586 136.68 61.5658C136.942 61.073 137.301 60.6762 137.742 60.3626C138.184 60.0491 138.696 59.8187 139.272 59.6651C139.854 59.5115 140.475 59.4347 141.147 59.4347C142.171 59.4347 143.08 59.6139 143.88 59.9723C144.68 60.3306 145.256 60.9578 145.608 61.8602C145.761 62.2442 145.857 62.6346 145.896 63.0505C145.934 63.4601 145.953 63.8633 145.953 64.2601V68.6759C145.953 68.9511 146.004 69.1431 146.1 69.2583C146.196 69.3735 146.369 69.4311 146.612 69.4311C146.734 69.4311 146.817 69.4247 146.862 69.4055C146.907 69.4055 146.945 69.3991 146.977 69.3799V71.4854ZM143.157 66.34L140.136 66.5704C139.694 66.6024 139.297 66.7432 138.945 67.0056C138.593 67.268 138.421 67.6392 138.421 68.1256C138.421 68.5799 138.593 68.9447 138.933 69.2135C139.272 69.4823 139.669 69.6103 140.11 69.6103C141.013 69.6103 141.742 69.3799 142.305 68.9127C142.869 68.4456 143.15 67.7736 143.15 66.8904V66.34H143.157Z" fill="#FFF29B"/>
<path d="M156.404 62.385C156.052 62.3082 155.726 62.2698 155.418 62.2698C154.414 62.2698 153.652 62.5898 153.134 63.2297C152.615 63.8697 152.359 64.6697 152.359 65.6297V71.6198H149.479V59.7291H151.905L152.155 61.5146C152.43 60.8298 152.884 60.3306 153.518 60.0299C154.151 59.7227 154.817 59.5755 155.521 59.5755C155.809 59.5755 156.11 59.6011 156.41 59.6459V62.385H156.404Z" fill="#FFF29B"/>
<path d="M165.895 71.6262V64.3305C165.895 63.6265 165.76 63.0826 165.485 62.6858C165.21 62.289 164.692 62.0906 163.93 62.0906C163.425 62.0906 163.009 62.2314 162.669 62.513C162.337 62.7946 162.068 63.1593 161.869 63.6009C161.671 64.0425 161.556 64.5609 161.524 65.1433C161.492 65.7321 161.479 66.276 161.479 66.7816V71.6326H158.618V59.7291H161.018L161.223 61.2586C161.575 60.6314 162.074 60.1707 162.721 59.8763C163.367 59.5819 164.033 59.4283 164.724 59.4283C165.364 59.4283 165.933 59.5371 166.426 59.7483C166.919 59.9595 167.341 60.2539 167.687 60.6314C168.032 61.009 168.295 61.457 168.474 61.9818C168.653 62.5066 168.749 63.0762 168.749 63.6841V71.6199H165.895V71.6262Z" fill="#FFF29B"/>
</svg>
